<?xml version="1.0" encoding="UTF-8"?>
<!-- Created with Inkscape (http://www.inkscape.org/) -->
<svg width="178.59mm" height="264.58mm" version="1.1" viewBox="0 0 178.59 264.58" xmlns="http://www.w3.org/2000/svg">
 <g transform="translate(-18.425 108.01)">
  <g transform="matrix(.25107 0 0 .25115 1285 -409.86)" stroke-width="1.0537">
   <g stroke-linecap="round" stroke-linejoin="round">
    <g stroke-width="26.341">
     <path d="m-4839.1 1983.1a55.276 20.76 29.404 0 0 14.54 28.535 20.76 55.276 89.404 0 0-26.187 17.925 20.76 55.276 89.404 0 0 37.9 19.241 20.76 55.276 79.453 0 1 47.761-21.837 20.76 55.276 79.453 0 1 0.1073-0.019 55.276 20.76 39.338 0 1-0.1243-0.097 55.276 20.76 39.338 0 1-31.353-42.279 55.276 20.76 29.404 0 0-42.644-1.4682z" fill="#87de87" stop-color="#000000"/>
     <path d="m-4789.8 1978.9a55.276 20.76 39.338 0 0 30.866 48.904 55.276 20.76 39.338 0 0 0.1243 0.097 20.76 55.276 79.453 0 0-0.1073 0.019 20.76 55.276 79.453 0 0-50.542 30.527 20.76 55.276 79.453 0 0 43.11 12.27 20.76 55.276 74.404 0 1 46.404-27.422 20.76 55.276 74.404 0 1 11.071-2.6283 55.276 20.76 44.404 0 1-8.4426-7.6048 55.276 20.76 44.404 0 1-27.438-46.3 55.276 20.76 39.338 0 0-43.772-10.052 55.276 20.76 39.338 0 0-1.2742 2.1908z" fill="#afa" stop-color="#000000"/>
     <path d="m-4737.1 1983.3a55.276 20.76 44.404 0 0 26.428 51.439 55.276 20.76 44.404 0 0 8.4426 7.6047 20.76 55.276 74.404 0 0-11.071 2.6282 20.76 55.276 74.404 0 0-47.659 34.856 20.76 55.276 74.404 0 0 39.163 9.1037 20.76 55.276 74.404 0 1 47.742-33.881 20.76 55.276 74.404 0 1 11.099-2.6036 55.276 20.76 44.404 0 1-8.4716-7.6299 55.276 20.76 44.404 0 1-26.427-51.438 55.276 20.76 44.404 0 1 0.8992-1.2716 55.276 20.76 44.404 0 0-38.682-10.877 55.276 20.76 44.404 0 0-1.4628 2.0694z" fill="#87de87" stop-color="#000000"/>
     <path d="m-4682 1990a55.276 20.76 44.404 0 0-9.6015 2.666 55.276 20.76 44.404 0 0-1.4629 2.0703 55.276 20.76 44.404 0 0 26.428 51.438 55.276 20.76 44.404 0 0 8.4707 7.6309 20.76 55.276 74.404 0 0-11.098 2.6035 20.76 55.276 74.404 0 0-47.66 34.855 20.76 55.276 74.404 0 0 58.822 5.1348 20.76 55.276 74.404 0 0 33.885-14.957c-5.8487-13.252-12.232-26.885-19.383-41.01-8.027-15.855-16.625-31.483-25.496-46.553a55.276 20.76 44.404 0 0-12.904-3.8789z" fill="#afa" stop-color="#000000"/>
    </g>
    <path d="m-5009.9 1607.7c-0.4997 0.7438-0.8615 1.5731-1.0937 2.4825-3.0763 12.05 16.642 38.122 41.99 65.23 28.984-4.7253 63.782-7.882 90.848-9.4902-2.6892-7.156-5.2499-14.133-6.9257-19.889 0-0.01 0-0.014-0.01-0.019-39.895-12.615-93.315-28.53-124.81-38.314zm133.32 62.434c-61.551 3.7044-166.64 16.509-168.2 39.891-2.0204 30.167 170.2 66.267 200.36 68.287 7.2989 0.4888 14.348-0.5043 20.887-2.6758-7.9219-13.042-15.22-25.886-21.861-38.359-0.3686-0.6902-0.7411-1.3808-1.1055-2.0684-1.9884-3.7617-3.9311-7.4776-5.7949-11.15-0.9775-1.9199-1.8913-3.7854-2.834-5.6778-2.1407-4.3112-4.2112-8.5484-6.168-12.697-1.5556-3.2879-3.0619-6.5245-4.498-9.6954-0.7776-1.7213-1.5431-3.4216-2.2852-5.1054-2.0857-4.7221-4.0813-9.3471-5.8769-13.742-1.0618-2.5987-1.6749-4.5675-2.6231-7.0059zm-43.56 120.97c-0.4325 0.7849-0.7196 1.644-0.8711 2.5703-2.0063 12.274 19.926 36.513 47.557 61.291 29.165-7.4324 64.628-13.784 91.709-17.744-2.6673-3.5298-5.5163-7.2005-7.957-10.553-2.2186-3.0449-4.301-6.1328-6.459-9.1992-6e-4 -2e-4 0 1e-4 0 0-40.378-8.8995-92.784-19.61-123.98-26.365zm141.29 49.963c-60.583 8.8466-167.56 31.271-167.06 55.029 0.6362 30.228 175.36 51.066 205.59 50.43 12.681-0.2669 24.232-4.8647 33.359-12.299-3.7404-5.1035-7.3875-10.171-11.305-15.346-12.92-17.067-25.686-33.161-38.748-49.711-7.5009-9.5032-14.827-18.924-21.834-28.104z" fill="#fac" stop-color="#000000" stroke-width="37.932"/>
   </g>
   <path d="m-4802.4 1595.4a36.719 97.77 15 0 1-36.215 38.898 97.77 36.719 45 0 1-0.4903 0.1074 36.719 97.77 15 0 1-2.5097 0.2324 97.77 36.719 45 0 1-44.527-15.664c0.7544 11.68 5.579 28.642 15.396 52.672 16.74 40.972 46.072 97.123 84.254 149.53 9.5892 13.171 21.2 27.942 32.691 42.502 13.062 16.55 25.828 32.644 38.748 49.711 6.5475 8.6488 12.865 17.197 18.894 25.65 20.075 28.143 39.921 61.639 57.272 95.91 24.71 48.807 41.116 92.366 52.869 130.94 7.0131 23.02 11.568 41.731 16.088 55.43 3.8624 11.705 7.7743 19.823 13.705 25.086 8.9551 7.9465 26.925 9.3054 44.06 8.9004 17.319-0.4094 34.252-3.0096 41.375-1.7441 6.616-2.9262 23.695-4.4188 40.365-9.5313 16.514-5.0648 33.152-14.276 36.195-34.152 1.9197-12.538-0.6054-28.966-7.4141-47.65-8.0614-22.122-21.644-46.25-39.912-71.646-0.9177-1.2759-1.8958-2.5415-2.8301-3.8145-10.33 4.4717-21.15 7.8604-32.258 9.7207-6.9588 1.1171-14.086 1.7105-21.102 0.7793-4.3154-0.6028-8.7614-1.8275-12.109-4.752-2.4026-2.3257-4.1463-5.2566-5.4063-8.3378-2.6729-6.7059-3.65-13.951-4.041-21.119-0.5484-11.433 0.577-22.913 2.877-34.113 1.394-6.63 3.2075-13.199 5.6074-19.541-4.1791-4.3673-8.2888-8.7347-12.564-13.104-3.8508 3.9277-7.7734 7.7892-12.303 10.932-11.561 8.1073-26.136 11.703-40.148 10.074-13.513-1.4983-26.402-7.9077-35.768-17.76-9.9629-10.354-15.903-24.477-16.258-38.848-0.4889-14.628 4.7618-29.357 14.42-40.359 0.2831-0.4051 1.1037-0.8409 0.3066-1.1426-1.6125-1.3751-1.8185-3.8005-0.9785-5.6543 0.7653-1.8052 1.7124-3.521 2.707-5.2109-5.8398-6.0099-11.394-11.903-16.779-17.729-4.2605 5.0101-9.1249 9.5522-14.713 13.051-12.577 8.0101-28.278 10.847-42.881 7.8965-13.093-2.5632-25.162-9.8319-33.664-20.098-8.583-10.247-13.399-23.522-13.523-36.877-0.1822-13.143 4.2449-26.281 12.324-36.646-1.669-0.9009-2.4298-2.9575-2.1094-4.7734 0.7406-3.1077 2.2794-5.9501 3.7188-8.7793 2.4483-4.6633 5.0481-9.2433 7.6523-13.82-3.5439-4.9542-7.069-9.8977-9.9765-14.387-8.1048-12.5-15.366-25.358-21.982-38.215-10.424 4.3132-22.083 5.6196-33.182 3.5547-13.312-2.4066-25.676-9.6253-34.338-20.014-8.6285-10.209-13.557-23.45-13.734-36.812-0.269-14.714 5.2256-29.459 15.152-40.336 0.2222-0.4089 1.0342-0.8442 0.9512-1.209-1.8376-1.2808-2.102-3.8965-1.209-5.8223 1.4531-3.2192 3.4467-6.1605 5.3652-9.1152 3.3165-4.9088 6.735-9.7464 10.195-14.555-2.9503-7.5461-5.5955-13.539-8.2656-18.244z" fill="#fca"/>
   <g stroke-linecap="round" stroke-linejoin="round">
    <g stroke-width="26.341">
     <path d="m-4910.7 1201.9a36.719 97.77 0 0 0-31.344 47.184 97.77 36.719 60 0 0-50.361-24.785 97.77 36.719 60 0 0 3.2637 75.109 97.77 36.719 50.049 0 1 75.125 54.633 97.77 36.719 50.049 0 1 0.123 0.1485 36.719 97.77 9.934 0 1 0.041-0.2754 36.719 97.77 9.934 0 1 37.922-85.027 36.719 97.77 0 0 0-34.77-66.986z" fill="#87de87" stop-color="#000000"/>
     <path d="m-4861.4 1274.1a36.719 97.77 9.934 0 0-48.553 90.029 36.719 97.77 9.934 0 0-0.041 0.2753 97.77 36.719 50.049 0 0-0.123-0.1484 97.77 36.719 50.049 0 0-90.93-51.371 97.77 36.719 50.049 0 0 18.529 77.084 97.77 36.719 45 0 1 82.553 47.691 97.77 36.719 45 0 1 13.664 14.777 36.719 97.77 15 0 1 4.3867-19.613 36.719 97.77 15 0 1 47.518-82.486 36.719 97.77 9.934 0 0-22.522-76.178 36.719 97.77 9.934 0 0-4.4824-0.061z" fill="#afa" stop-color="#000000"/>
     <path d="m-4822.4 1359.3a36.719 97.77 15 0 0-56.312 85.393 36.719 97.77 15 0 0-4.3867 19.613 97.77 36.719 45 0 0-13.664-14.777 97.77 36.719 45 0 0-95.098-43.17 97.77 36.719 45 0 0 19.98 68.252 97.77 36.719 45 0 1 93.666 44.145 97.77 36.719 45 0 1 13.65 14.842 36.719 97.77 15 0 1 4.4004-19.68 36.719 97.77 15 0 1 56.312-85.391 36.719 97.77 15 0 1 2.7403 0.2812 36.719 97.77 15 0 0-16.83-69.051 36.719 97.77 15 0 0-4.459-0.457z" fill="#87de87" stop-color="#000000"/>
     <path d="m-4801.8 1437a36.719 97.77 15 0 0-56.312 85.391 36.719 97.77 15 0 0-4.4004 19.68 97.77 36.719 45 0 0-13.65-14.842 97.77 36.719 45 0 0-95.098-43.17 97.77 36.719 45 0 0 43.17 95.098 97.77 36.719 45 0 0 84.117 47.629 36.719 97.77 15 0 0 2.5098-0.2324 97.77 36.719 45 0 0 0.4902-0.1074 36.719 97.77 15 0 0 53.797-85.047 36.719 97.77 15 0 0-10.164-103.94 36.719 97.77 15 0 0-4.459-0.457z" fill="#afa" stop-color="#000000"/>
    </g>
    <path d="m-4696.5 1490.7c-37.886 50.372-128.61 166.9-106.2 147.04 12.248-10.142 68.154-45.985 112.64-68.197 4.7048-36.814 5.4496-69.494-4.0937-77.469-0.7202-0.6019-1.4995-1.0639-2.3399-1.375zm75.295 58.912c-41.917 2.3202-159.18 75.057-179.56 91.93-23.287 19.283-26.535 53.795-7.2519 77.082 19.283 23.287 53.793 26.533 77.08 7.25 23.288-19.283 141.86-149.29 122.58-172.58-2.4103-2.9109-6.8596-4.0151-12.848-3.6836zm-3.4649 105.29c-32.618 53.933-111.14 179-90.848 156.99 11.164-11.325 63.173-52.616 105.19-79.197 0.9717-37.101-1.5788-69.689-11.877-76.662-0.7772-0.5262-1.5993-0.9079-2.4668-1.1328zm85.022 50.629c-37.72 0.8313-154.32 90.439-173.56 109.95-21.226 21.531-20.978 56.192 0.5527 77.418s56.194 20.978 77.42-0.5527c21.226-21.531 126.1-162.82 104.57-184.05-2.0185-1.99-5.0764-2.8536-8.9785-2.7676zm34.92 58.668c-36.591 51.32-124.32 170.12-102.43 149.7 11.986-10.451 66.96-47.706 110.86-71.043 3.7661-36.922 3.6788-69.61-6.0644-77.34-0.7353-0.5834-1.525-1.0249-2.3731-1.3145zm80.963 56.895c-37.675-2.0148-160.7 78.546-181.36 96.553-22.789 19.87-25.157 54.451-5.2871 77.24s54.451 25.157 77.24 5.2872c22.789-19.87 138.02-152.85 118.15-175.64-1.8628-2.1365-4.8468-3.2291-8.7442-3.4375z" fill="#fac" stop-color="#000000" stroke-width="37.932"/>
    <g stroke-width="26.341">
     <path d="m-4335 1916.6a20.76 55.276 54.338 0 0-32.005 1.1546 20.76 55.276 24.338 0 0-5.2146-31.303 20.76 55.276 24.338 0 0-33.425 26.256 20.76 55.276 14.387 0 1-0.3337 52.516 20.76 55.276 14.387 0 1-0.028 0.1052 20.76 55.276 64.272 0 1 0.1404-0.072 20.76 55.276 64.272 0 1 51.556-10.606 20.76 55.276 54.338 0 0 19.31-38.05z" fill="#87de87" stop-color="#000000"/>
     <path d="m-4351.9 1963.1a20.76 55.276 64.272 0 0-57.358 7.3717 20.76 55.276 64.272 0 0-0.1403 0.072 20.76 55.276 14.387 0 0 0.028-0.1052 20.76 55.276 14.387 0 0-6.374-58.701 20.76 55.276 14.387 0 0-29.301 33.919 20.76 55.276 9.3384 0 1 5.3031 53.64 20.76 55.276 9.3384 0 1-2.2842 11.147 20.76 55.276 69.338 0 1 10.455-4.4496 20.76 55.276 69.338 0 1 53.552-5.3612 20.76 55.276 64.272 0 0 27.569-35.454 20.76 55.276 64.272 0 0-1.4495-2.0791z" fill="#afa" stop-color="#000000"/>
     <path d="m-4378.2 2009.1a20.76 55.276 69.338 0 0-57.786 2.279 20.76 55.276 69.338 0 0-10.455 4.4496 20.76 55.276 9.3384 0 0 2.2842-11.147 20.76 55.276 9.3384 0 0-11.515-57.912 20.76 55.276 9.3384 0 0-24.766 31.674 20.76 55.276 9.3384 0 1 10.595 57.576 20.76 55.276 9.3384 0 1-2.3184 11.162 20.76 55.276 69.338 0 1 10.49-4.4653 20.76 55.276 69.338 0 1 57.785-2.2784 20.76 55.276 69.338 0 1 0.774 1.3515 20.76 55.276 69.338 0 0 26.171-30.49 20.76 55.276 69.338 0 0-1.2598-2.1989z" fill="#87de87" stop-color="#000000"/>
     <path d="m-4407.1 2044.1a20.76 55.276 69.338 0 0-57.785 2.2783 20.76 55.276 69.338 0 0-10.49 4.4654 20.76 55.276 9.3384 0 0 2.3182-11.162 20.76 55.276 9.3384 0 0-11.515-57.912 20.76 55.276 9.3384 0 0-29.454 51.175 20.76 55.276 9.3384 0 0 5.8476 54.338 20.76 55.276 69.338 0 0 0.934 1.0761 20.76 55.276 9.3384 0 0 0.2109 0.1897 20.76 55.276 69.338 0 0 56.798-3.3207 20.76 55.276 69.338 0 0 44.395-38.929 20.76 55.276 69.338 0 0-1.2597-2.1988z" fill="#afa" stop-color="#000000"/>
    </g>
   </g>
  </g>
 </g>
</svg>
